<svg version="1.1" id="Layer_1" xmlns="http://www.w3.org/2000/svg" xmlns:xlink="http://www.w3.org/1999/xlink" x="0px" y="0px"
	 width="100%" viewBox="0 0 96 96" enable-background="new 0 0 96 96" xml:space="preserve">
<path fill="#000000" opacity="1.000000" stroke="none" 
	d="
M97.000000,81.531342 
	C94.422989,83.509918 91.567726,83.696571 88.765778,83.255165 
	C85.642197,82.763100 83.714066,80.784142 83.669525,77.466835 
	C83.582710,70.999649 83.594864,64.531181 83.551353,58.063339 
	C83.531525,55.115261 83.931412,52.412384 86.942970,50.863846 
	C88.191788,50.221706 88.089355,49.100796 87.862022,47.831585 
	C85.129440,32.575508 75.030342,14.679129 57.157639,11.116234 
	C44.558285,8.604572 34.781017,13.865558 26.606834,22.800543 
	C20.130634,29.879509 17.565020,38.945614 14.756344,47.833076 
	C14.360919,49.084316 14.529398,50.178982 15.808830,50.797108 
	C19.309601,52.488422 19.391228,55.620663 19.361557,58.875763 
	C19.309929,64.539978 19.467226,70.208557 19.303757,75.868576 
	C19.143980,81.400879 16.918497,83.441017 11.654800,83.357185 
	C6.637931,83.277298 4.723379,81.271294 4.667541,75.847794 
	C4.610937,70.349892 4.709690,64.850182 4.633131,59.352764 
	C4.585294,55.917786 4.725339,52.678448 8.177111,50.666302 
	C9.678606,49.791035 9.416179,48.125450 9.696876,46.659958 
	C12.543569,31.797636 18.593554,18.872025 31.930431,10.436084 
	C49.360405,-0.588852 69.886353,4.775841 81.832932,19.766649 
	C88.223785,27.786020 92.351883,37.080990 93.370293,47.480682 
	C93.560310,49.421173 94.231873,50.644360 96.630203,50.933525 
	C97.000000,61.020893 97.000000,71.041786 97.000000,81.531342 
z"/>
<path fill="#000000" opacity="1.000000" stroke="none" 
	d="
M43.466862,97.000000 
	C41.219006,94.837799 38.435844,94.395386 36.173393,93.055077 
	C24.354445,86.053406 18.503681,71.859322 22.135550,58.732445 
	C25.741203,45.700329 37.928894,36.140030 51.085995,36.023071 
	C65.126015,35.898262 78.161293,45.889324 81.207489,59.110077 
	C84.605316,73.856956 78.238113,87.587486 64.974091,94.081284 
	C63.186058,94.956673 61.361938,95.758354 59.277264,96.797081 
	C53.977909,97.000000 48.955814,97.000000 43.466862,97.000000 
M54.832150,41.434132 
	C52.181313,44.482899 49.543072,41.412037 46.906212,41.454601 
	C35.652145,41.636230 25.100367,55.599449 27.763039,66.595078 
	C27.908489,67.195717 27.981163,68.090637 27.652077,68.485466 
	C25.172314,71.460564 26.968521,74.241463 28.141094,76.851799 
	C30.898224,82.989609 35.332489,87.648735 41.592583,90.293411 
	C47.449745,92.767853 53.665565,90.933708 59.562759,90.724747 
	C64.978340,90.532837 69.407394,86.092819 72.485832,81.342110 
	C75.134605,77.254478 78.539711,73.120453 74.934021,67.776039 
	C74.704483,67.435806 75.058296,66.388817 75.458649,65.988792 
	C77.676231,63.773094 76.751854,61.342907 75.966423,59.006042 
	C72.651756,49.143963 65.826118,43.281193 54.832150,41.434132 
z"/>
<path fill="#000000" opacity="1.000000" stroke="none" 
	d="
M49.390163,81.427475 
	C45.369949,70.675041 47.329994,60.687416 50.898224,50.562935 
	C56.807930,56.098854 57.323696,74.975189 52.083523,85.822060 
	C49.404434,85.666771 49.925980,83.433090 49.390163,81.427475 
M50.531303,76.695580 
	C50.850388,77.772026 51.169472,78.848465 51.608406,80.329216 
	C52.271965,77.756050 52.890984,75.568100 53.386478,73.352524 
	C53.672222,72.074814 53.877590,70.702049 52.476875,69.839790 
	C51.718552,69.372986 50.842548,69.375641 50.186157,69.947174 
	C49.173382,70.829010 49.424225,71.995377 49.731773,73.135010 
	C49.986580,74.079231 50.189629,75.037422 50.531303,76.695580 
z"/>
</svg>